<svg width="795" height="628" viewBox="0 0 795 628" fill="none" xmlns="http://www.w3.org/2000/svg">
<g filter="url(#filter0_d_8_4)">
<g filter="url(#filter1_i_8_4)">
<path fill-rule="evenodd" clip-rule="evenodd" d="M304.344 396.469C276.139 394.334 248.507 397.38 222.067 404.946C237.071 366.685 246.883 324.667 250.247 280.234C258.292 173.954 227.779 75.7747 172.972 6.46625C342.639 44.0146 463.326 201.256 449.853 379.25C448.007 403.643 443.728 427.272 437.272 449.917C398.912 419.352 353.688 400.204 304.344 396.469Z" fill="#EAD200"/>
<path fill-rule="evenodd" clip-rule="evenodd" d="M362.104 391.487C333.899 389.352 306.267 392.398 279.828 399.964C294.831 361.703 304.643 319.684 308.007 275.252C316.109 168.211 285.101 69.3873 229.552 0C409.012 29.7158 539.192 191.917 525.226 376.416C523.099 404.518 517.743 431.606 509.549 457.344C468.289 419.575 417.823 395.704 362.104 391.487Z" fill="#33BA04"/>
<path fill-rule="evenodd" clip-rule="evenodd" d="M439.609 407.968C411.404 405.833 383.773 408.879 357.333 416.445C372.336 378.185 382.148 336.166 385.512 291.733C394.145 177.682 358.376 72.9595 295.831 3.23312C481.562 27.4513 618.001 192.796 603.721 381.456C601.331 413.028 594.866 443.32 584.88 471.856C544.026 435.227 494.353 412.112 439.609 407.968Z" fill="#EF4141"/>
</g>
<g filter="url(#filter2_i_8_4)">
<path fill-rule="evenodd" clip-rule="evenodd" d="M790.598 323.312C716.755 399.954 583.89 451.082 432.258 451.082C304.627 451.082 190.292 414.858 113.259 357.685C143.769 480.863 282.548 573.879 449.137 573.879C630.905 573.879 779.564 463.14 790.598 323.312Z" fill="#E68009"/>
<path fill-rule="evenodd" clip-rule="evenodd" d="M741.769 386.389C667.892 445.119 540.607 478.235 399.137 467.236C280.059 457.979 175.741 419.396 107.586 366.002C128.045 471.214 251.477 559.059 406.902 571.142C576.489 584.327 722.385 502.511 741.769 386.389Z" fill="white"/>
<path fill-rule="evenodd" clip-rule="evenodd" d="M47.4318 308.763C90.1032 373.805 181.948 433.995 296.897 464.465C393.652 490.112 486.617 489.359 554.941 467.387C510.424 541.944 389.067 574.987 262.779 541.512C124.985 504.987 31.5175 402.575 47.4318 308.763Z" fill="#E68009"/>
<path fill-rule="evenodd" clip-rule="evenodd" d="M74.2447 360.493C120.052 413.81 210.794 461.079 319.949 482.303C411.828 500.167 497.609 495.855 558.546 474.575C524.769 539.383 415.944 572.123 296.021 548.806C165.172 523.365 68.7769 440.454 74.2447 360.493Z" fill="white"/>
</g>
</g>
<defs>
<filter id="filter0_d_8_4" x="41.6693" y="0" width="752.928" height="581.879" filterUnits="userSpaceOnUse" color-interpolation-filters="sRGB">
<feFlood flood-opacity="0" result="BackgroundImageFix"/>
<feColorMatrix in="SourceAlpha" type="matrix" values="0 0 0 0 0 0 0 0 0 0 0 0 0 0 0 0 0 0 127 0" result="hardAlpha"/>
<feOffset dy="4"/>
<feGaussianBlur stdDeviation="2"/>
<feComposite in2="hardAlpha" operator="out"/>
<feColorMatrix type="matrix" values="0 0 0 0 0 0 0 0 0 0 0 0 0 0 0 0 0 0 0.25 0"/>
<feBlend mode="normal" in2="BackgroundImageFix" result="effect1_dropShadow_8_4"/>
<feBlend mode="normal" in="SourceGraphic" in2="effect1_dropShadow_8_4" result="shape"/>
</filter>
<filter id="filter1_i_8_4" x="172.972" y="0" width="431.775" height="475.856" filterUnits="userSpaceOnUse" color-interpolation-filters="sRGB">
<feFlood flood-opacity="0" result="BackgroundImageFix"/>
<feBlend mode="normal" in="SourceGraphic" in2="BackgroundImageFix" result="shape"/>
<feColorMatrix in="SourceAlpha" type="matrix" values="0 0 0 0 0 0 0 0 0 0 0 0 0 0 0 0 0 0 127 0" result="hardAlpha"/>
<feOffset dy="4"/>
<feGaussianBlur stdDeviation="2"/>
<feComposite in2="hardAlpha" operator="arithmetic" k2="-1" k3="1"/>
<feColorMatrix type="matrix" values="0 0 0 0 0 0 0 0 0 0 0 0 0 0 0 0 0 0 0.25 0"/>
<feBlend mode="normal" in2="shape" result="effect1_innerShadow_8_4"/>
</filter>
<filter id="filter2_i_8_4" x="45.6693" y="308.763" width="744.928" height="269.116" filterUnits="userSpaceOnUse" color-interpolation-filters="sRGB">
<feFlood flood-opacity="0" result="BackgroundImageFix"/>
<feBlend mode="normal" in="SourceGraphic" in2="BackgroundImageFix" result="shape"/>
<feColorMatrix in="SourceAlpha" type="matrix" values="0 0 0 0 0 0 0 0 0 0 0 0 0 0 0 0 0 0 127 0" result="hardAlpha"/>
<feOffset dy="4"/>
<feGaussianBlur stdDeviation="2"/>
<feComposite in2="hardAlpha" operator="arithmetic" k2="-1" k3="1"/>
<feColorMatrix type="matrix" values="0 0 0 0 0 0 0 0 0 0 0 0 0 0 0 0 0 0 0.25 0"/>
<feBlend mode="normal" in2="shape" result="effect1_innerShadow_8_4"/>
</filter>
</defs>
</svg>
